<svg xmlns="http://www.w3.org/2000/svg" width="75.642" height="75.642" viewBox="0 0 75.642 75.642">
  <path id="arrow-circle-down-solid" d="M83.642,45.821A37.821,37.821,0,1,1,45.821,8,37.815,37.815,0,0,1,83.642,45.821Zm-21.9-4.407L50.7,52.928V25.081a3.651,3.651,0,0,0-3.66-3.66H44.6a3.651,3.651,0,0,0-3.66,3.66V52.928L29.9,41.414a3.664,3.664,0,0,0-5.231-.061L23.006,43.03a3.645,3.645,0,0,0,0,5.17L43.229,68.438a3.645,3.645,0,0,0,5.17,0L68.636,48.2a3.645,3.645,0,0,0,0-5.17l-1.662-1.678A3.664,3.664,0,0,0,61.743,41.414Z" transform="translate(-8 -8)" fill="#fff"/>
</svg>
