<svg xmlns="http://www.w3.org/2000/svg" width="84.098" height="58.087" viewBox="0 0 84.098 58.087">
  <path id="_9189644851554892219" data-name="9189644851554892219" d="M189.089,405.75H108.647a1.876,1.876,0,0,0-1.871,1.871v54.72c0,.094,0,.094.094.187,0,.094,0,.094.094.187,0,.094.094.094.094.187s.094.094.094.187v.094l.094.094.094.094.094.094a.327.327,0,0,0,.187.094c.094,0,.094.094.187.094s.094.094.187.094.094,0,.187.094h81.378c.094,0,.187-.094.281-.094l.094-.094a.2.2,0,0,0,.187-.187l.094-.094.187-.187.094-.094v-.094c0-.094.094-.094.094-.187a.327.327,0,0,0,.094-.187c0-.094,0-.094.094-.187s0-.094.094-.187V407.621A1.743,1.743,0,0,0,189.089,405.75ZM110.518,418l25.255,20.017-25.255,20.017Zm3.554,42,24.787-19.643,8.886,7.015a1.8,1.8,0,0,0,1.122.374,1.633,1.633,0,0,0,1.122-.374l8.886-7.015L183.664,460Zm73.146-1.964L161.964,438.02,187.219,418Zm0-44.8-1.122.935-37.228,29.464L111.64,414.168l-1.122-.935v-3.742h76.7Z" transform="translate(-106.776 -405.75)" fill="#fff"/>
</svg>
