<svg xmlns="http://www.w3.org/2000/svg" width="57.233" height="42.087" viewBox="0 0 57.233 42.087">
  <path id="envelope-solid" d="M56.148,77.9a.674.674,0,0,1,1.084.515v22.413a5.315,5.315,0,0,1-5.366,5.261H5.366A5.315,5.315,0,0,1,0,100.826v-22.4a.67.67,0,0,1,1.084-.515c2.5,1.907,5.824,4.329,17.226,12.451,2.359,1.688,6.338,5.239,10.306,5.217,3.991.033,8.048-3.595,10.318-5.217C50.336,82.238,53.644,79.8,56.148,77.9ZM28.616,92.058c2.593.044,6.327-3.2,8.2-4.537C51.655,76.966,52.784,76.045,56.2,73.415a2.6,2.6,0,0,0,1.028-2.071V69.261A5.315,5.315,0,0,0,51.867,64H5.366A5.315,5.315,0,0,0,0,69.261v2.082a2.62,2.62,0,0,0,1.028,2.071c3.421,2.619,4.55,3.551,19.383,14.106C22.289,88.858,26.023,92.1,28.616,92.058Z" transform="translate(0 -64)" fill="#fff"/>
</svg>
