<svg xmlns="http://www.w3.org/2000/svg" width="34.543" height="33.698" viewBox="0 0 34.543 33.698">
  <path id="Caminho_1" data-name="Caminho 1" d="M32.226,13.967a17.2,17.2,0,0,0-6.285-6.286,16.893,16.893,0,0,0-8.669-2.316A16.9,16.9,0,0,0,8.6,7.681a17.194,17.194,0,0,0-6.286,6.286A16.894,16.894,0,0,0,0,22.636,16.785,16.785,0,0,0,3.295,32.789a16.916,16.916,0,0,0,8.512,6.24,1.007,1.007,0,0,0,.9-.157A.879.879,0,0,0,13,38.2q0-.067-.011-1.214t-.011-2l-.517.089a6.6,6.6,0,0,1-1.248.079,9.509,9.509,0,0,1-1.563-.157,3.492,3.492,0,0,1-1.507-.674,2.853,2.853,0,0,1-.989-1.383l-.225-.518a5.619,5.619,0,0,0-.708-1.147,2.714,2.714,0,0,0-.978-.854l-.157-.113a1.651,1.651,0,0,1-.292-.27,1.234,1.234,0,0,1-.2-.315q-.068-.158.112-.259a1.458,1.458,0,0,1,.652-.1l.45.067a3.283,3.283,0,0,1,1.113.54,3.63,3.63,0,0,1,1.091,1.169,3.964,3.964,0,0,0,1.248,1.406,2.648,2.648,0,0,0,1.473.483,6.4,6.4,0,0,0,1.282-.112,4.473,4.473,0,0,0,1.012-.338,3.644,3.644,0,0,1,1.1-2.317,15.4,15.4,0,0,1-2.305-.4A9.178,9.178,0,0,1,9.7,28.977a6.054,6.054,0,0,1-1.81-1.507,7.241,7.241,0,0,1-1.18-2.361,11.229,11.229,0,0,1-.461-3.373A6.559,6.559,0,0,1,8.028,17.1a6.046,6.046,0,0,1,.157-4.587,3.151,3.151,0,0,1,1.934.3A13.522,13.522,0,0,1,12,13.685q.6.359.956.607a16.241,16.241,0,0,1,8.636,0l.855-.539a12.1,12.1,0,0,1,2.069-.99,2.947,2.947,0,0,1,1.822-.247,5.987,5.987,0,0,1,.18,4.587,6.56,6.56,0,0,1,1.777,4.633,11.354,11.354,0,0,1-.461,3.384,6.96,6.96,0,0,1-1.191,2.361,6.287,6.287,0,0,1-1.822,1.5,9.2,9.2,0,0,1-2.114.877,15.382,15.382,0,0,1-2.3.405,4.005,4.005,0,0,1,1.169,3.193V38.2a.9.9,0,0,0,.281.674.977.977,0,0,0,.888.157,16.913,16.913,0,0,0,8.512-6.24,16.788,16.788,0,0,0,3.294-10.154A16.908,16.908,0,0,0,32.226,13.967Z" transform="translate(0 -5.365)" fill="#42228f"/>
</svg>
