<svg xmlns="http://www.w3.org/2000/svg" width="160.655" height="160.655" viewBox="0 0 160.655 160.655">
  <path id="icons8-javascript" d="M14.205,4A10.267,10.267,0,0,0,4,14.205V154.449a10.267,10.267,0,0,0,10.205,10.205H154.449a10.257,10.257,0,0,0,10.205-10.205V14.205A10.258,10.258,0,0,0,154.449,4Zm0,7.65H154.449A2.545,2.545,0,0,1,157,14.205V154.449A2.545,2.545,0,0,1,154.449,157H14.205a2.545,2.545,0,0,1-2.555-2.555V14.205A2.544,2.544,0,0,1,14.205,11.65ZM76.677,76.677v48.1c0,7.381-2.794,9.279-7.65,9.279-5.08,0-8.606-3.168-10.938-7.277l-12.013,7.277c3.482,7.366,12.013,15.3,23.847,15.3,13.089,0,22.054-6.963,22.054-22.248V76.677Zm47.634,0c-13.029,0-21.382,8.338-21.382,19.29,0,11.878,7.008,17.5,17.542,21.979l3.646,1.569c6.649,2.914,9.936,4.692,9.936,9.7,0,4.169-3.168,7.187-9.219,7.187-7.2,0-10.609-4.886-13.731-10l-11.475,7.65c4.288,8.472,11.983,15.3,25.536,15.3,13.866,0,24.191-7.2,24.191-20.336,0-12.193-6.993-17.617-19.409-22.936l-3.646-1.554c-6.261-2.72-8.98-4.483-8.98-8.861,0-3.541,2.719-6.261,6.993-6.261,4.2,0,6.888,1.778,9.384,6.261l11.371-7.291C140.269,79.9,133.59,76.677,124.312,76.677Z" transform="translate(-4 -4)" fill="#fff"/>
</svg>
