<svg xmlns="http://www.w3.org/2000/svg" width="170.381" height="231.063" viewBox="0 0 170.381 231.063"><g transform="translate(-3.994 -0.001)"><path d="M59.073,70.928s-8.882,5.4,6.174,6.946c18.124,2.311,27.778,1.928,47.838-1.928a72.35,72.35,0,0,0,12.73,6.174c-45.13,19.294-102.247-1.155-66.749-11.192ZM53.3,45.85s-9.647,7.329,5.4,8.882c19.677,1.928,35.108,2.311,61.738-3.083a23.54,23.54,0,0,0,9.257,5.784c-54.4,16.2-115.36,1.545-76.4-11.575ZM159.782,89.824s6.556,5.4-7.329,9.647c-25.85,7.726-108.413,10.037-131.563,0-8.1-3.466,7.329-8.484,12.275-9.257a38.582,38.582,0,0,1,7.726-1.155c-8.882-6.174-59.03,12.73-25.461,18.124,92.21,15.048,168.216-6.557,144.293-17.359ZM63.247,19.609S21.193,29.646,48.2,33.112c11.575,1.545,34.335,1.155,55.557-.383,17.359-1.545,34.732-4.621,34.732-4.621a92.979,92.979,0,0,0-10.42,5.4C85.248,44.7,3.061,39.683,26.6,28.108c20.059-9.647,36.653-8.484,36.653-8.484Zm75.241,42.054c43.209-22.385,23.15-43.975,9.257-41.281a24.388,24.388,0,0,0-5.018,1.545,6.613,6.613,0,0,1,3.856-3.083c27.4-9.647,49,28.934-8.882,43.975a4.829,4.829,0,0,0,.773-1.155ZM67.507,122.621c41.664,2.7,105.33-1.545,106.868-21.229,0,0-3.083,7.726-34.335,13.5-35.5,6.557-79.479,5.777-105.33,1.545,0,0,5.4,4.621,32.8,6.174Z" transform="translate(0 107.709)" fill="#fff"/><path d="M64.87,0S88.793,24.306,42.11,60.959c-37.425,29.706-8.484,46.683,0,65.977C20.116,107.259,4.3,89.893,15.1,73.7,30.918,49.767,74.517,38.264,64.87,0ZM52.595,110.732c11.192,12.73-3.083,24.305-3.083,24.305s28.551-14.658,15.431-32.8C52.985,84.882,43.713,76.39,93.876,47.456c0,0-79.09,19.677-41.281,63.276Z" transform="translate(47.449 0)" fill="#fff"/></g></svg>