<svg xmlns="http://www.w3.org/2000/svg" width="52.602" height="41.643" viewBox="0 0 52.602 41.643">
  <path id="medium" d="M48.4,7.394l4.2-4.015V2.5H38.062L27.7,28.293,15.91,2.5H.664v.879l4.9,5.9A2.057,2.057,0,0,1,6.231,11v23.2a2.645,2.645,0,0,1-.708,2.3L0,43.188v.868H15.66v-.879l-5.523-6.683a2.727,2.727,0,0,1-.761-2.3V14.129L23.123,44.067h1.6l11.82-29.937V37.978c0,.629,0,.758-.412,1.17l-4.252,4.114v.881H52.506v-.879l-4.1-4.013a1.219,1.219,0,0,1-.469-1.17V8.565a1.214,1.214,0,0,1,.467-1.17Z" transform="translate(0 -2.5)" fill="#fff"/>
</svg>
