<svg xmlns="http://www.w3.org/2000/svg" width="240.583" height="214.249" viewBox="0 0 240.583 214.249"><g transform="translate(-175.7 -78)"><path d="M416.283,185.149c0-15.937-19.959-31.041-50.559-40.408,7.062-31.188,3.923-56-9.906-63.946a21.5,21.5,0,0,0-10.985-2.746V88.985a11.355,11.355,0,0,1,5.59,1.275c6.669,3.825,9.563,18.389,7.307,37.122-.539,4.61-1.422,9.464-2.5,14.417a237.647,237.647,0,0,0-31.139-5.345,239.206,239.206,0,0,0-20.4-24.519c15.987-14.859,30.992-23,41.192-23V78c-13.486,0-31.139,9.612-48.989,26.285C278.043,87.71,260.389,78.2,246.9,78.2V89.132c10.151,0,25.206,8.091,41.192,22.852a231.615,231.615,0,0,0-20.253,24.47,228.994,228.994,0,0,0-31.188,5.394c-1.128-4.9-1.962-9.661-2.55-14.221-2.3-18.733.539-33.3,7.16-37.171a10.914,10.914,0,0,1,5.639-1.275V78.245a21.865,21.865,0,0,0-11.083,2.746c-13.78,7.944-16.869,32.709-9.759,63.8-30.5,9.415-50.362,24.47-50.362,40.359,0,15.938,19.959,31.041,50.559,40.408-7.062,31.188-3.923,56,9.906,63.946a21.557,21.557,0,0,0,11.034,2.746c13.486,0,31.139-9.612,48.989-26.285,17.85,16.575,35.5,26.088,48.989,26.088a21.865,21.865,0,0,0,11.083-2.746c13.78-7.944,16.869-32.709,9.759-63.8,30.4-9.366,50.264-24.47,50.264-40.359ZM352.435,152.44c-1.814,6.326-4.07,12.848-6.62,19.37-2.011-3.923-4.119-7.846-6.424-11.769-2.256-3.923-4.659-7.748-7.062-11.475C339.292,149.6,346.01,150.871,352.435,152.44Zm-22.46,52.226c-3.825,6.62-7.748,12.9-11.818,18.733-7.307.638-14.712.981-22.165.981-7.4,0-14.81-.343-22.067-.932q-6.105-8.753-11.867-18.635-5.59-9.636-10.2-19.517c3.04-6.571,6.473-13.142,10.151-19.566,3.825-6.62,7.748-12.9,11.818-18.733,7.307-.637,14.712-.981,22.165-.981,7.4,0,14.81.343,22.067.932q6.105,8.753,11.867,18.635,5.59,9.636,10.2,19.517C337.036,191.671,333.653,198.242,329.975,204.666Zm15.839-6.375c2.648,6.571,4.9,13.142,6.767,19.517-6.424,1.569-13.191,2.893-20.2,3.923,2.4-3.776,4.806-7.65,7.062-11.622C341.7,206.186,343.8,202.214,345.814,198.291Zm-49.725,52.324a202.171,202.171,0,0,1-13.633-15.692c4.413.2,8.925.343,13.486.343,4.61,0,9.17-.1,13.633-.343A191.406,191.406,0,0,1,296.089,250.615ZM259.6,221.732c-6.963-1.03-13.682-2.3-20.106-3.874,1.814-6.326,4.07-12.848,6.62-19.37,2.011,3.923,4.119,7.846,6.424,11.769S257.2,218,259.6,221.732Zm36.239-102.049a202.17,202.17,0,0,1,13.633,15.692c-4.413-.2-8.925-.343-13.486-.343-4.61,0-9.17.1-13.633.343A191.417,191.417,0,0,1,295.844,119.683Zm-36.288,28.884c-2.4,3.776-4.806,7.65-7.062,11.622-2.256,3.923-4.364,7.846-6.375,11.769-2.648-6.571-4.9-13.142-6.767-19.517,6.424-1.52,13.191-2.844,20.2-3.874Zm-44.38,61.4c-17.36-7.4-28.589-17.114-28.589-24.813s11.23-17.458,28.589-24.813c4.217-1.814,8.827-3.433,13.584-4.953a235.524,235.524,0,0,0,11.034,29.864,232.205,232.205,0,0,0-10.887,29.717c-4.855-1.52-9.464-3.187-13.731-5Zm26.383,70.076c-6.669-3.825-9.562-18.389-7.307-37.122.539-4.61,1.422-9.464,2.5-14.417a237.648,237.648,0,0,0,31.139,5.345,239.212,239.212,0,0,0,20.4,24.519c-15.987,14.859-30.992,23-41.192,23a11.7,11.7,0,0,1-5.541-1.324Zm116.319-37.367c2.3,18.733-.539,33.3-7.16,37.171a10.914,10.914,0,0,1-5.639,1.275c-10.151,0-25.206-8.091-41.192-22.852a231.616,231.616,0,0,0,20.253-24.47,228.993,228.993,0,0,0,31.188-5.394A137.286,137.286,0,0,1,357.878,242.671Zm18.88-32.709c-4.217,1.814-8.827,3.433-13.584,4.953a235.515,235.515,0,0,0-11.034-29.864,232.2,232.2,0,0,0,10.887-29.717c4.855,1.52,9.464,3.188,13.78,5,17.36,7.4,28.589,17.114,28.589,24.813-.049,7.7-11.279,17.458-28.638,24.813Z" fill="#fff"/><circle cx="22.411" cy="22.411" r="22.411" transform="translate(273.532 162.738)" fill="#fff"/></g></svg>