<svg xmlns="http://www.w3.org/2000/svg" width="253.608" height="250.063" viewBox="0 0 253.608 250.063"><g transform="translate(-3444 -3885)"><path d="M29.6,175.3a106.39,106.39,0,0,1-3.7-50.9A176.78,176.78,0,0,1,31.4,103S45.2,57.7,91.9,37c0,0,16.1-8.5,40.3-9.1a52.744,52.744,0,0,0-5.4-4.6c-11.4-7.6-28.4-10.1-38.7.6-3.1,3.2-5.7,6.7-8.6,9.9a30.911,30.911,0,0,1-11.9,8.3c-4,1.5-8,1.2-12.1,1.9a26.034,26.034,0,0,0-11.9,4.9c-3.7,3-5.2,7-5.6,11.6-.4,3.6-.3,7.3-.5,10.9C37,82,33.6,85,26,90.9a30.906,30.906,0,0,0-7.9,9c-6,10.6,3.6,21.6,4.1,32.3a16.026,16.026,0,0,1-.9,6.5c-.8,2.3-2.4,3.8-3.7,5.7a11.7,11.7,0,0,0-2.5,8.6c.5,3.1,2.1,6,3.6,8.7A82.169,82.169,0,0,0,29,174.9c.2,0,.4.2.6.4" transform="translate(3429.014 3868.281)" fill="#fff"/><path d="M220.4,213.7c23-10,32.8-27.3,32.8-27.3,21.5-29.3,14.2-60.2,14.2-60.2-13.7,29.8-26.2,38-26.2,38,33.7-51.3.2-82.3.2-82.3,13.7,29.2-4.5,64.8-4.5,64.8-15.3,32.2-37,43.7-37,43.7,24.2,4.5,42-11.8,42-11.8-34.7,37.5-72.3,35.7-72.3,35.7,15.8,17.7,39.5,16.2,39.5,16.2-31,7.3-60.1-3-84-22.9a131.752,131.752,0,0,1-12.8-12s-3.6-3.8-4.3-4.8l-.1-.1c-.5,18.5,18.8,35.7,18.8,35.7-24.2-10-35.3-31.7-35.3-31.7s-16.3-27.8-4.5-59.5,47.5-38.5,47.5-38.5c29.5,14.3,54.5,18.8,54.5,18.8,52.7,8.8,49.7-17,49.7-17,.5-22.2-33-45.8-33-45.8C145.9,8.4,91.9,37,91.9,37c-46.7,20.7-60.5,66-60.5,66a176.78,176.78,0,0,0-5.5,21.4c-5.1,29.7,2.6,57.8,19.3,82.8,26,38.8,68.2,52.2,68.2,52.2,62.5,21.2,105.2-10,105.2-10,39.3-27,47.2-58.2,47.2-58.2C234.1,216,220.4,213.7,220.4,213.7ZM171.6,67.8a5.4,5.4,0,1,1-5.4,5.4A5.378,5.378,0,0,1,171.6,67.8Z" transform="translate(3429.014 3868.281)" fill="#fff"/><path d="M238.5,98.4c.5-22.2-33-45.8-33-45.8C145.8,8.4,91.8,37,91.8,37c-46.7,20.7-60.5,66-60.5,66a185.467,185.467,0,0,0-5.1,19.5A111.743,111.743,0,0,0,24.6,151a108.626,108.626,0,0,0,4.1,21.9,113.332,113.332,0,0,0,4.4,12.3c-.1-.3-.6-2.5-.6-2.5s-4.2-20.2-.3-39.6c0,0,3.4-20.2,17.2-35.8,0,0,22.4-31.9,64.1-19.4,0,0,9,3.2,12.1,4.8,3.1,1.5,8.5,3.8,8.5,3.8,29.5,14.3,54.5,18.8,54.5,18.8C241.5,124.2,238.5,98.4,238.5,98.4ZM171.6,78.7a5.4,5.4,0,1,1,5.4-5.4A5.378,5.378,0,0,1,171.6,78.7Z" transform="translate(3429.014 3868.281)" fill="#fff"/><path d="M137.4,58.2,103.3,47.6a5.169,5.169,0,0,0-3,0S80.2,52.7,83.7,63.7a42.576,42.576,0,0,0,7.8,13.6L129,75.5Z" transform="translate(3429.014 3868.281)" fill="#fff"/></g></svg>