<svg xmlns="http://www.w3.org/2000/svg" width="256" height="256" viewBox="0 0 256 256"><path d="M0,128V256H256V0H0Zm157-4.5V135H124V240H97V135H64V112h93Zm65-10.1a91.9,91.9,0,0,1,10.3,2.5L235,117v12.5c0,6.9-.2,12.5-.4,12.5a51.311,51.311,0,0,1-4.7-2.4c-9-5.1-23.4-7-32.2-4.4a19.064,19.064,0,0,0-6.8,4.1c-2.4,2.3-2.9,3.7-2.9,7.4,0,4,.5,5.1,3.8,8.2,2.1,2,9.9,6.6,17.5,10.4,16,7.9,24.1,14.6,27.8,22.9,3.3,7.4,3.4,23,.2,30a36.5,36.5,0,0,1-16.1,16.4c-13.8,6.5-36.3,7.1-53.9,1.3l-6.3-2.1V206l5,3.6a46.152,46.152,0,0,0,23.7,8.2c8.8.6,15.3-1,19.3-4.8,2.5-2.3,3-3.6,3-7.4,0-7.3-4.2-11.1-21.4-19.5-15.2-7.5-20-10.9-24.5-17.5-10-14.5-7-36.7,6.4-46.8,11.4-8.7,30.3-11.9,49.5-8.4Z" fill="#fff"/></svg>